<svg width="47" height="25" viewBox="0 0 47 25" fill="none" xmlns="http://www.w3.org/2000/svg">
<path d="M9.87977 6.08031C11.2238 6.08031 12.4184 6.36831 13.4638 6.94431C14.5304 7.52031 15.3624 8.37364 15.9598 9.50431C16.5784 10.635 16.8878 12.0003 16.8878 13.6003V24.0003H13.2718V14.1443C13.2718 12.5656 12.8771 11.3603 12.0878 10.5283C11.2984 9.67498 10.2211 9.24831 8.85577 9.24831C7.49043 9.24831 6.40243 9.67498 5.59177 10.5283C4.80243 11.3603 4.40777 12.5656 4.40777 14.1443V24.0003H0.759766V0.320312H4.40777V8.41631C5.02643 7.66965 5.8051 7.09365 6.74377 6.68831C7.70377 6.28298 8.7491 6.08031 9.87977 6.08031Z" fill="#43403B"/>
<path d="M30.661 6.08031C32.005 6.08031 33.1997 6.36831 34.245 6.94431C35.3117 7.52031 36.1437 8.37364 36.741 9.50431C37.3597 10.635 37.669 12.0003 37.669 13.6003V24.0003H34.053V14.1443C34.053 12.5656 33.6583 11.3603 32.869 10.5283C32.0797 9.67498 31.0023 9.24831 29.637 9.24831C28.2717 9.24831 27.1837 9.67498 26.373 10.5283C25.5837 11.3603 25.189 12.5656 25.189 14.1443V24.0003H21.541V0.320312H25.189V8.41631C25.8077 7.66965 26.5863 7.09365 27.525 6.68831C28.485 6.28298 29.5303 6.08031 30.661 6.08031Z" fill="#43403B"/>
<path d="M43.7943 24.2243C43.1329 24.2243 42.5783 24.0003 42.1303 23.5523C41.6823 23.1043 41.4583 22.5496 41.4583 21.8883C41.4583 21.227 41.6823 20.6723 42.1303 20.2243C42.5783 19.7763 43.1329 19.5523 43.7943 19.5523C44.4343 19.5523 44.9783 19.7763 45.4263 20.2243C45.8743 20.6723 46.0983 21.227 46.0983 21.8883C46.0983 22.5496 45.8743 23.1043 45.4263 23.5523C44.9783 24.0003 44.4343 24.2243 43.7943 24.2243Z" fill="#12B379"/>
</svg>
